<svg xmlns="http://www.w3.org/2000/svg" width="24" height="24" viewBox="0 0 24 24" fill="none">
  <path
    d="M10 15L15 12L10 9V15ZM21.8 8C21.8 8 21.58 6.84 21 6.25C20.25 5.5 19.4 5.47 18.8 5.4C15.93 5.2 12 5.2 12 5.2H12C12 5.2 8.07 5.2 5.2 5.4C4.6 5.47 3.75 5.5 3 6.25C2.42 6.84 2.2 8 2.2 8C2.2 8 2 9.33 2 10.67V13.33C2 14.67 2.2 16 2.2 16C2.2 16 2.42 17.16 3 17.75C3.75 18.5 4.75 18.47 5.2 18.6C7.93 18.8 12 18.8 12 18.8C12 18.8 15.93 18.8 18.8 18.6C19.4 18.53 20.25 18.5 21 17.75C21.58 17.16 21.8 16 21.8 16C21.8 16 22 14.67 22 13.33V10.67C22 9.33 21.8 8 21.8 8Z"
    fill="currentColor"
  />
</svg>
